<svg width="652" height="618" viewBox="0 0 652 618" fill="none" xmlns="http://www.w3.org/2000/svg">
<path fill-rule="evenodd" clip-rule="evenodd" d="M50.4678 2.7075C27.8538 8.8065 11.1448 24.8815 3.10677 48.2695C0.701775 55.2645 0.348787 57.8395 0.293787 68.7695C0.220787 83.1755 1.70878 90.0215 7.46378 101.769C14.2098 115.541 31.0508 129.959 45.9588 134.725L49.7088 135.924L49.6988 183.098L49.6898 230.27L40.9488 234.453C36.1418 236.754 30.1838 240.326 27.7088 242.392C16.9138 251.399 8.58278 264.426 5.08578 277.77C2.86278 286.254 2.83078 302.081 5.02078 311.004C8.32678 324.479 16.9418 338.087 27.2338 346.093C33.3538 350.853 46.3348 357.095 53.7088 358.822C60.7838 360.48 75.6588 360.477 82.7088 358.816C86.9448 357.818 99.2538 352.694 103.743 350.061C104.036 349.888 109.511 354.14 115.908 359.509C148.133 386.552 180.882 413.839 186.449 418.285C191.796 422.556 192.608 423.628 192.125 425.77C190.704 432.065 190.64 448.445 192.017 453.569L193.441 458.868L181.325 465.957C167.03 474.321 157.933 479.871 135.927 493.663L119.644 503.868L114.427 499.269C108.249 493.822 95.7888 487.449 86.7088 485.092C78.6978 483.013 62.2838 482.792 54.7088 484.662C44.4548 487.194 31.1818 494.154 23.6408 500.954C18.4828 505.606 12.1298 514.441 8.92578 521.421C-0.743224 542.483 1.23578 568.428 13.9628 587.457C38.5348 624.195 91.9868 627.503 120.023 594.018C125.875 587.029 133.117 572.424 134.775 564.269C135.446 560.969 135.964 553.473 135.928 547.61L135.861 536.952L141.035 533.55C143.881 531.68 161.17 521.251 179.456 510.373L212.704 490.595L217.562 494.162C224.4 499.182 233.508 503.509 240.897 505.251C249.63 507.31 265.495 507.103 274.209 504.817C278.059 503.807 281.732 503.272 282.371 503.626C283.01 503.98 297.583 517.094 314.756 532.769C331.928 548.444 347.188 562.252 348.666 563.452L374.291 587.457C397.291 606.799 440.343 615.342 446.791 603.799C448.399 600.92 355.709 520.648 355.709 520.462C355.709 520.277 345.459 510.773 332.932 499.342L310.154 478.559L312.929 472.915C319.299 459.954 321.354 442.199 318.205 427.334C313.812 406.595 297.335 387.759 277.482 380.782C258.101 373.97 236.691 376.707 219.894 388.144L212.172 393.402L191.142 375.335C179.575 365.399 160.819 349.284 149.462 339.525L128.813 321.78L130.717 316.246C139.106 291.864 132.849 265.753 114.148 247.099C107.418 240.386 104.336 238.157 96.8658 234.599L87.7748 230.27L87.7418 183.203L87.7088 136.138L93.4588 133.803C127.157 120.125 145.418 81.5975 134.143 47.9675C130.276 36.4335 126.279 30.1645 116.793 20.7515C106.939 10.9725 98.1738 5.8295 86.0998 2.7415C76.0238 0.164495 59.9538 0.149499 50.4678 2.7075ZM78.2088 46.1225C97.2978 55.0305 98.4288 80.6445 80.2058 91.3245C72.0288 96.1165 62.5718 95.6055 53.5498 89.8835C49.9388 87.5935 48.2098 85.5015 45.6788 80.3595C42.7528 74.4175 42.4858 73.1365 42.9538 67.3095C44.3898 49.4145 62.2558 38.6775 78.2088 46.1225ZM79.2798 272.151C85.4618 275.03 90.2738 280.617 92.2378 287.202C94.0888 293.406 94.0788 295.161 92.1528 301.647C90.2718 307.982 85.2128 313.862 79.1018 316.822C75.4928 318.569 73.2938 318.916 67.7958 318.605C54.6798 317.864 45.7038 309.057 44.8798 296.121C44.3278 287.444 46.4648 282.073 52.7038 276.465C60.6128 269.354 70.0008 267.829 79.2798 272.151ZM266.361 420.09C268.086 420.982 270.908 423.122 272.632 424.847C277.827 430.042 279.147 433.466 279.179 441.843C279.206 448.555 278.865 449.974 276.183 454.316C266.296 470.323 241.962 469.249 234.145 452.46C228.056 439.382 233.044 425.784 246.209 419.574C251.036 417.297 261.477 417.564 266.361 420.09ZM80.2158 527.12C95.9988 534.47 99.6118 556.064 87.0508 567.96C77.3628 577.135 60.5018 576.748 51.5178 567.145C44.9508 560.126 42.7518 547.674 46.5868 539.23C48.7588 534.449 56.2938 527.509 60.9238 526.026C66.8278 524.134 74.7708 524.586 80.2158 527.12Z" fill="#F03E3C"/>
<path fill-rule="evenodd" clip-rule="evenodd" d="M352.484 13.3015C282.905 22.7885 229.269 73.2584 215.485 142.212C212.501 157.142 212.251 188.804 215.017 201.644C220.935 229.123 233.548 253.802 251.34 272.714C255.54 277.18 258.805 280.966 258.593 281.128C258.382 281.289 253.484 284.482 247.709 288.223C231.696 298.595 221.463 306.925 207.168 321.224C196.155 332.24 180.709 350.729 180.709 352.896C180.709 353.241 185.096 357.059 190.459 361.38C195.822 365.702 202.997 371.879 206.405 375.109L212.601 380.982L215.634 378.822C234.066 365.698 266.648 363.668 287.863 374.323C302.775 381.812 314.058 392.927 321.148 407.114C327.812 420.445 329.202 426.665 329.121 442.769C329.056 455.787 327.64 463.492 323.222 474.891C322.759 476.086 327.771 481.238 342.295 494.495L361.997 512.478L375.137 497.374C486.519 369.335 489.603 365.864 493.97 363.636C496.985 362.098 499.298 361.667 502.758 362C515.395 363.214 520.666 376.515 513.111 388.126C511.515 390.579 479.834 427.271 442.709 469.665C403.872 514.013 374.041 548.921 372.459 551.871C369.147 558.046 368.881 564.348 371.674 570.501C377.562 583.471 399.719 597.761 423.289 603.789C437.352 607.386 451.051 605.862 467.884 598.828C489.107 589.961 536.756 553.809 566.755 523.813C601.078 489.495 619.512 459.729 626.427 427.461C628.605 417.296 628.814 391.793 626.809 380.769C617.073 327.231 577.519 284.795 516.416 262.333L511.623 260.571L514.186 257.21C532.269 233.502 542.709 203.075 542.709 174.08V166.536L546.573 170.027C556.234 178.755 571.943 185.568 587.631 187.833C597.545 189.265 614.991 188.593 625.299 186.384C634.811 184.345 651.709 178.88 651.709 177.843C651.709 177.385 646.749 171.816 640.686 165.467C620.856 144.702 608.501 137.534 587.258 134.467L578.389 133.186L583.799 129.308C611.612 109.366 630.428 79.4995 637.72 43.7165C640.195 31.5715 640.282 27.7695 638.086 27.7695C634.545 27.7695 615.342 34.9375 605.037 40.1045C573.922 55.7095 551.042 78.5385 536.587 108.402L532.446 116.958L530.728 112.113C525.239 96.6375 513.04 77.5725 499.416 63.1765C477.598 40.1235 451.274 24.8285 419.411 16.6935C400.626 11.8975 373.038 10.4995 352.484 13.3015ZM476.511 139.167C477.998 139.935 479.963 141.398 480.879 142.417C486.703 148.897 484.885 182.084 477.692 200.602C471.17 217.391 459.468 228.016 443.853 231.326C426.6 234.983 408.673 232.469 371.709 221.211C334.838 209.981 323.964 210.119 297.972 222.147C291.442 225.169 283.961 228.18 281.348 228.838C263.021 233.453 242.734 217.759 234.213 192.376C229.064 177.036 228.493 151.326 233.144 144.227C235.328 140.895 238.366 141.022 255.859 145.179C286.247 152.399 303.963 155.262 327.524 156.757C363.015 159.01 406.513 153.474 460.709 139.808C469.902 137.489 473.023 137.363 476.511 139.167Z" fill="white"/>
<path d="M240.522 169.637C240.86 168.289 242.136 166.815 243.357 166.361C244.578 165.907 246.027 165.682 246.577 165.86C280.344 176.8 289.403 179.653 298.274 182.143C304.157 183.795 309.864 185.624 310.956 186.208C313.864 187.765 314.521 190.946 312.555 193.947C310.996 196.327 310.471 196.477 305.685 195.915L300.504 195.306L299.134 199.946C298.321 202.698 296.264 206.086 294.079 208.271C284.225 218.125 267.452 214.03 263.051 200.696C262.283 198.368 262.028 194.399 262.378 190.223L262.942 183.499L256.759 181.791C243.461 178.12 239.194 174.925 240.522 169.637Z" fill="white"/>
<path d="M385.077 182.372C393.602 180.133 408.902 175.836 419.077 172.824C442.74 165.82 448.621 165.986 446.708 173.606C445.949 176.632 441.841 178.966 432.403 181.733C426.514 183.46 426.272 183.656 427.153 185.973C427.661 187.31 428.067 190.736 428.055 193.588C428.001 206.294 418.574 215.294 405.359 215.257C395.395 215.228 386.646 207.933 385.395 198.61L384.86 194.616L378.387 196.068C370.809 197.768 367.508 196.839 366.473 192.716C365.389 188.397 368.293 186.782 385.077 182.372Z" fill="white"/>
</svg>
